<svg width="64" height="64" viewBox="0 0 32 32" fill="#000" fill-opacity="0.2" xmlns="http://www.w3.org/2000/svg">
<path d="M15.9998 19.2783C15.5525 19.2783 15.1775 19.6532 15.1775 20.1005C15.1775 20.5478 15.5525 20.9228 15.9998 20.9228C16.4306 20.9228 16.822 20.5478 16.8023 20.1203C16.822 19.6499 16.4504 19.2783 15.9998 19.2783Z"  />
<path d="M23.6106 22.1924C24.127 21.301 24.1303 20.2387 23.6172 19.3506L18.4666 10.4307C17.9568 9.53283 17.0358 9 16.0031 9C14.9703 9 14.0494 9.53611 13.5396 10.4274L8.38237 19.3572C7.86928 20.2551 7.87257 21.3241 8.39223 22.2154C8.90533 23.0969 9.82297 23.6264 10.8492 23.6264H21.1373C22.1668 23.6264 23.091 23.0903 23.6106 22.1924ZM22.4924 21.5477C22.2062 22.0411 21.6997 22.3338 21.134 22.3338H10.8459C10.2867 22.3338 9.7835 22.0476 9.50393 21.5642C9.22107 21.0741 9.21778 20.4886 9.50064 19.9953L14.6579 11.0688C14.9374 10.5787 15.4374 10.2893 16.0031 10.2893C16.5655 10.2893 17.0687 10.582 17.3483 11.0721L22.5022 19.9986C22.7785 20.4788 22.7752 21.0576 22.4924 21.5477Z" />
<path d="M15.7959 13.506C15.4045 13.6178 15.1611 13.973 15.1611 14.4039C15.1808 14.6637 15.1973 14.9269 15.217 15.1867C15.2729 16.1767 15.3288 17.147 15.3848 18.137C15.4045 18.4724 15.6643 18.7158 15.9998 18.7158C16.3353 18.7158 16.5984 18.456 16.6149 18.1172C16.6149 17.9133 16.6149 17.7258 16.6346 17.5186C16.6708 16.8838 16.7102 16.2491 16.7464 15.6143C16.7662 15.2031 16.8023 14.792 16.8221 14.3809C16.8221 14.2329 16.8023 14.1013 16.7464 13.9697C16.5787 13.6014 16.1873 13.4139 15.7959 13.506Z"  />
</svg>
